<?xml version="1.0" encoding="UTF-8"?><svg id="Layer_1" xmlns="http://www.w3.org/2000/svg" viewBox="0 0 57.72 51.04"><path d="m51.56,30.34c1.61-4.73,1.71-9.86.09-14.59,0,0-.03-.08-.03-.08,0,0,.08-.04.08-.04,0,0,4.88-2.77,4.88-2.77,0,0,.09.24.09.24l-5.39,1.38s-.13.03-.13.03c0,0-.05-.12-.05-.12-1.78-4.32-4.97-8.02-8.95-10.44,0,0,.3-.17.3-.17,0,0,4.82-2.74,4.82-2.74,0,0,.16.42.16.42,0,0-6.54,1.74-6.54,1.74-.11.03-.1.03-.19-.02C31.02-1.97,18.03,1.5,12.25,10.81c-2.01,3.03-3.14,6.59-3.47,10.2-2.12,1.84-4.17,3.78-6.11,5.82,0,0-.49-.63-.49-.63.33-.17,6.47-3.68,6.57-3.72-.04,4.74,1.48,9.47,4.32,13.26,0,0-.31.3-.31.3l-5.28,5.13s-.6-.77-.6-.77l6.48-3.65s.36-.2.36-.2c0,0,.26.31.26.31,3.25,3.87,7.87,6.49,12.84,7.4-.41.4-4.58,4.3-5.1,4.8,0,0-.57-.73-.57-.73,0,0,6.78-3.75,6.78-3.75.11-.07.13-.05.25-.05,4.53.49,9.21-.33,13.2-2.59,4.08-2.22,7.27-5.84,9.35-9.94,0,0,5.59-3.04,5.59-3.04l.08.22-4.84,1.17h0Zm.07-.07s4.72-1.33,4.72-1.33c0,0,.89-.25.89-.25l-.81.47-5.51,3.2s.09-.09.09-.09c-3.83,8.7-13.49,14.17-22.92,13.08,0,0,.25-.05.25-.05-2.13,1.21-7.92,4.53-9.99,5.71,0,0,2.69-2.59,2.69-2.59l4.41-4.24.22.86c-4.83-1.06-9.27-3.76-12.46-7.54,0,0,.62.11.62.11l-6.48,3.64s-3.39,1.9-3.39,1.9l2.79-2.68,5.36-5.15-.07.63c-2.63-3.71-4.09-8.22-4.14-12.75l.64.37-5.97,3.33-2.38,1.33c2.53-2.64,5.18-5.33,7.97-7.69,0,0-.13.25-.13.25C9.41,4.96,26.85-4.67,40.93,2.74c0,0-.19-.02-.19-.02,0,0,6.59-1.7,6.59-1.7l1.69-.44c-.94.54-5.34,2.96-6.38,3.55,0,0,0-.35,0-.35,3.9,2.49,7,6.2,8.72,10.48l-.18-.09s5.42-1.34,5.42-1.34l.94-.23-.85.47s-4.9,2.73-4.9,2.73c1.65,3.95,1.54,10.07-.17,14.46h0Z" style="fill:#231f20;"/><text transform="translate(17.97 32.8)" style="font-family:Oregano-Regular, Oregano; font-size:40px;"><tspan x="0" y="0">nt</tspan></text></svg>